<svg xmlns="http://www.w3.org/2000/svg" viewBox="0 0 512 512" style="height: 512px; width: 512px;"><circle cx="256" cy="256" r="256" fill="#ff0000" fill-opacity="1"></circle><g class="" transform="translate(0,0)" style=""><g><path d="M256 32C132.288 32 32 132.288 32 256C32 379.712 132.288 480 256 480C379.712 480 480 379.712 480 256C480 132.288 379.712 32 256 32Z" class="" fill="#ffffff" fill-opacity="1"></path><path d="M256 72C357.62 72 440 154.38 440 256C440 357.62 357.62 440 256 440C154.38 440 72 357.62 72 256C72 154.38 154.38 72 256 72Z" class="" fill="#ff0000" fill-opacity="1"></path><path d="M256 120C180.889 120 120 180.889 120 256C120 331.111 180.889 392 256 392C331.111 392 392 331.111 392 256C392 180.889 331.111 120 256 120Z" class="" fill="#ffffff" fill-opacity="1"></path><path d="M255.006 167.834C264.854 167.637 274.714 169.358 284.008 172.586C310.813 180.716 331.281 203.099 339.828 229.264L276.778 227.979L256 168.202L235.223 227.978L171.953 229.266L222.38 267.5L204.36 327.063C183.82 311.577 169.52 287.408 167.687 261.823C163.667 213.381 207.192 167.141 255.007 167.833Z" class="" fill="#0800ff" fill-opacity="1"></path><path d="M339.876 229.398C343.826 241.558 345.21 254.528 343.446 267.264C341.156 291.588 327.106 312.974 307.626 327.018L289.618 267.5L339.873 229.398Z" class="" fill="#0800ff" fill-opacity="1"></path><path d="M256 291.926L307.04 327.441C291.156 338.711 271.747 345.126 252.154 344.298C234.898 343.918 218.564 337.598 204.92 327.472L256 291.927Z" class="selected" fill="#0800ff" fill-opacity="1"></path></g></g></svg>